<svg role="img" viewBox="0 0 24 24" xmlns="http://www.w3.org/2000/svg"><title>BMW</title><path d="M12 0C5.373 0 0 5.373 0 12s5.373 12 12 12 12-5.373 12-12S18.627 0 12 0zm0 .78C18.196.78 23.219 5.803 23.219 12c0 6.196-5.022 11.219-11.219 11.219C5.803 23.219.781 18.196.781 12S5.804.78 12 .78zm0 4.103a7.114 7.114 0 0 0-7.08 6.388A7.122 7.122 0 0 0 12 19.117a7.122 7.122 0 0 0 7.116-7.117A7.122 7.122 0 0 0 12 4.883zm0 .935A6.175 6.175 0 0 1 18.182 12H12v6.182A6.175 6.175 0 0 1 5.818 12H12V5.818Z"/></svg>